# xmcd
#
# Track frame offsets:
#	150
#	29489
#	51686
#	74727
#	96313
#	119469
#	141927
#	168878
#	194671
#	218741
#
# Disc length: 3273 seconds
#
# Revision: 1
# Processed by: cddbd v1.5.2PL0 Copyright (c) Steve Scherf et al.
# Submitted via: EZCDAudioConverter 8.0.2.1
#
DISCID=a50cc70a
DTITLE=Như Quỳnh - Tơ Tằm
DYEAR=2003
DGENRE=Miscellaneous
TTITLE0=Như Quỳnh - Tơ Tằm
TTITLE1=Như Quỳnh - Nhớ nhà
TTITLE2=Như Quỳnh - Định mệnh buồn
TTITLE3=Như Quỳnh - Làm dâu miệt vườn
TTITLE4=Như Quỳnh - Lưu luyến tình quê
TTITLE5=Như Quỳnh, Trường Vũ - Anh buồn em thương
TTITLE6=Như Quỳnh - Người đã sang sông
TTITLE7=Như Quỳnh - Ngựa ô lang thang
TTITLE8=Như Quỳnh - Sớm chồng
TTITLE9=Như Quỳnh - Chuyện người con gái hái sim
EXTD=
EXTT0=
EXTT1=
EXTT2=
EXTT3=
EXTT4=
EXTT5=
EXTT6=
EXTT7=
EXTT8=
EXTT9=
PLAYORDER=
